# xmcd
#
# Track frame offsets:
#	150
#	14199
#	28391
#	38806
#	53020
#	63262
#	75267
#	88268
#	97667
#	108863
#	120940
#	132941
#	143985
#
# Disc length: 2058 seconds
#
# Revision: 1
# Processed by: cddbd v1.5.2PL0 Copyright (c) Steve Scherf et al.
# Submitted via: audiograbber 1.83.01
#
DISCID=a208080d
DTITLE=Various Artist - Bluegrass CD1
DYEAR=2008
DGENRE=Bluegrass
TTITLE0=I am a Man of Constant Sorrow
TTITLE1=Thank God Im a Country Boy
TTITLE2=Oke From Muskogee
TTITLE3=Highway 40 Blues
TTITLE4=Tiger by the tail
TTITLE5=Wabash Cannonball
TTITLE6=Blue Moon of Kentucky
TTITLE7=Going up to Cripple Creek
TTITLE8=Windwood Flower
TTITLE9=Chattahoochie
TTITLE10=Ring of Fire
TTITLE11=Please help me Im falling
TTITLE12=I walk the line
EXTD=
EXTT0=
EXTT1=
EXTT2=
EXTT3=
EXTT4=
EXTT5=
EXTT6=
EXTT7=
EXTT8=
EXTT9=
EXTT10=
EXTT11=
EXTT12=
PLAYORDER=
